<svg width="1211" height="60" viewBox="0 0 1211 60" fill="none" xmlns="http://www.w3.org/2000/svg">
<rect x="1011" y="10" width="180" height="40" rx="20" fill="#F5F5F5"/>
<path d="M1061.37 31.43C1061.37 31.84 1061.44 32.19 1061.58 32.48C1061.72 32.77 1061.92 33.01 1062.17 33.2C1062.42 33.38 1062.7 33.515 1063.02 33.605C1063.35 33.685 1063.71 33.725 1064.09 33.725C1064.5 33.725 1064.85 33.68 1065.14 33.59C1065.43 33.49 1065.66 33.365 1065.84 33.215C1066.02 33.065 1066.15 32.895 1066.23 32.705C1066.31 32.505 1066.35 32.305 1066.35 32.105C1066.35 31.695 1066.26 31.395 1066.07 31.205C1065.89 31.005 1065.69 30.865 1065.47 30.785C1065.09 30.645 1064.64 30.515 1064.13 30.395C1063.63 30.265 1063.01 30.1 1062.27 29.9C1061.81 29.78 1061.43 29.625 1061.12 29.435C1060.82 29.235 1060.58 29.015 1060.4 28.775C1060.22 28.535 1060.09 28.28 1060.01 28.01C1059.94 27.74 1059.9 27.465 1059.9 27.185C1059.9 26.645 1060.01 26.18 1060.23 25.79C1060.46 25.39 1060.76 25.06 1061.13 24.8C1061.5 24.54 1061.92 24.35 1062.39 24.23C1062.86 24.1 1063.34 24.035 1063.82 24.035C1064.38 24.035 1064.9 24.11 1065.39 24.26C1065.89 24.4 1066.33 24.615 1066.7 24.905C1067.08 25.195 1067.38 25.555 1067.6 25.985C1067.82 26.405 1067.93 26.895 1067.93 27.455H1066.05C1066 26.765 1065.77 26.28 1065.35 26C1064.93 25.71 1064.39 25.565 1063.74 25.565C1063.52 25.565 1063.3 25.59 1063.07 25.64C1062.84 25.68 1062.63 25.755 1062.44 25.865C1062.25 25.965 1062.09 26.105 1061.96 26.285C1061.84 26.465 1061.78 26.69 1061.78 26.96C1061.78 27.34 1061.89 27.64 1062.12 27.86C1062.36 28.07 1062.67 28.23 1063.05 28.34C1063.09 28.35 1063.25 28.395 1063.52 28.475C1063.8 28.545 1064.11 28.625 1064.45 28.715C1064.79 28.805 1065.12 28.895 1065.44 28.985C1065.77 29.065 1066 29.125 1066.14 29.165C1066.49 29.275 1066.8 29.425 1067.06 29.615C1067.32 29.805 1067.53 30.025 1067.7 30.275C1067.88 30.515 1068.01 30.775 1068.09 31.055C1068.18 31.335 1068.23 31.615 1068.23 31.895C1068.23 32.495 1068.1 33.01 1067.85 33.44C1067.61 33.86 1067.29 34.205 1066.89 34.475C1066.49 34.745 1066.04 34.94 1065.53 35.06C1065.02 35.19 1064.5 35.255 1063.97 35.255C1063.36 35.255 1062.78 35.18 1062.24 35.03C1061.7 34.88 1061.23 34.65 1060.83 34.34C1060.43 34.03 1060.11 33.635 1059.87 33.155C1059.63 32.665 1059.51 32.09 1059.49 31.43H1061.37ZM1074.95 30.44C1074.93 30.17 1074.87 29.91 1074.77 29.66C1074.68 29.41 1074.55 29.195 1074.38 29.015C1074.22 28.825 1074.02 28.675 1073.78 28.565C1073.55 28.445 1073.29 28.385 1073 28.385C1072.7 28.385 1072.43 28.44 1072.18 28.55C1071.94 28.65 1071.73 28.795 1071.55 28.985C1071.38 29.165 1071.24 29.38 1071.13 29.63C1071.03 29.88 1070.97 30.15 1070.96 30.44H1074.95ZM1070.96 31.565C1070.96 31.865 1071 32.155 1071.08 32.435C1071.17 32.715 1071.3 32.96 1071.47 33.17C1071.64 33.38 1071.86 33.55 1072.12 33.68C1072.38 33.8 1072.69 33.86 1073.05 33.86C1073.55 33.86 1073.95 33.755 1074.25 33.545C1074.56 33.325 1074.79 33 1074.94 32.57H1076.56C1076.47 32.99 1076.31 33.365 1076.09 33.695C1075.87 34.025 1075.61 34.305 1075.3 34.535C1074.99 34.755 1074.64 34.92 1074.25 35.03C1073.87 35.15 1073.47 35.21 1073.05 35.21C1072.44 35.21 1071.9 35.11 1071.43 34.91C1070.96 34.71 1070.56 34.43 1070.23 34.07C1069.91 33.71 1069.66 33.28 1069.49 32.78C1069.33 32.28 1069.25 31.73 1069.25 31.13C1069.25 30.58 1069.34 30.06 1069.51 29.57C1069.69 29.07 1069.94 28.635 1070.26 28.265C1070.59 27.885 1070.98 27.585 1071.44 27.365C1071.9 27.145 1072.42 27.035 1073 27.035C1073.61 27.035 1074.16 27.165 1074.64 27.425C1075.13 27.675 1075.53 28.01 1075.85 28.43C1076.17 28.85 1076.4 29.335 1076.54 29.885C1076.69 30.425 1076.73 30.985 1076.66 31.565H1070.96ZM1084.46 33.275C1084.46 33.485 1084.48 33.635 1084.53 33.725C1084.59 33.815 1084.7 33.86 1084.86 33.86C1084.91 33.86 1084.97 33.86 1085.04 33.86C1085.11 33.86 1085.19 33.85 1085.28 33.83V35.015C1085.22 35.035 1085.14 35.055 1085.04 35.075C1084.95 35.105 1084.86 35.13 1084.76 35.15C1084.66 35.17 1084.56 35.185 1084.46 35.195C1084.36 35.205 1084.27 35.21 1084.2 35.21C1083.85 35.21 1083.56 35.14 1083.33 35C1083.1 34.86 1082.95 34.615 1082.88 34.265C1082.54 34.595 1082.12 34.835 1081.62 34.985C1081.13 35.135 1080.66 35.21 1080.2 35.21C1079.85 35.21 1079.51 35.16 1079.19 35.06C1078.87 34.97 1078.59 34.835 1078.34 34.655C1078.1 34.465 1077.9 34.23 1077.75 33.95C1077.61 33.66 1077.54 33.325 1077.54 32.945C1077.54 32.465 1077.63 32.075 1077.8 31.775C1077.98 31.475 1078.21 31.24 1078.49 31.07C1078.78 30.9 1079.1 30.78 1079.45 30.71C1079.81 30.63 1080.17 30.57 1080.53 30.53C1080.84 30.47 1081.13 30.43 1081.41 30.41C1081.69 30.38 1081.94 30.335 1082.15 30.275C1082.37 30.215 1082.54 30.125 1082.66 30.005C1082.79 29.875 1082.85 29.685 1082.85 29.435C1082.85 29.215 1082.8 29.035 1082.69 28.895C1082.59 28.755 1082.46 28.65 1082.3 28.58C1082.15 28.5 1081.98 28.45 1081.79 28.43C1081.6 28.4 1081.42 28.385 1081.25 28.385C1080.77 28.385 1080.37 28.485 1080.06 28.685C1079.75 28.885 1079.58 29.195 1079.54 29.615H1077.83C1077.86 29.115 1077.98 28.7 1078.19 28.37C1078.4 28.04 1078.66 27.775 1078.98 27.575C1079.31 27.375 1079.68 27.235 1080.09 27.155C1080.5 27.075 1080.92 27.035 1081.35 27.035C1081.73 27.035 1082.11 27.075 1082.48 27.155C1082.85 27.235 1083.18 27.365 1083.47 27.545C1083.77 27.725 1084.01 27.96 1084.19 28.25C1084.37 28.53 1084.46 28.875 1084.46 29.285V33.275ZM1082.75 31.115C1082.49 31.285 1082.17 31.39 1081.79 31.43C1081.41 31.46 1081.03 31.51 1080.65 31.58C1080.47 31.61 1080.29 31.655 1080.12 31.715C1079.95 31.765 1079.8 31.84 1079.67 31.94C1079.54 32.03 1079.44 32.155 1079.36 32.315C1079.29 32.465 1079.25 32.65 1079.25 32.87C1079.25 33.06 1079.31 33.22 1079.42 33.35C1079.53 33.48 1079.66 33.585 1079.81 33.665C1079.97 33.735 1080.14 33.785 1080.32 33.815C1080.51 33.845 1080.68 33.86 1080.83 33.86C1081.02 33.86 1081.22 33.835 1081.44 33.785C1081.66 33.735 1081.87 33.65 1082.06 33.53C1082.26 33.41 1082.42 33.26 1082.55 33.08C1082.68 32.89 1082.75 32.66 1082.75 32.39V31.115ZM1086.3 27.245H1087.9V28.745H1087.93C1087.98 28.535 1088.08 28.33 1088.22 28.13C1088.37 27.93 1088.54 27.75 1088.74 27.59C1088.95 27.42 1089.18 27.285 1089.43 27.185C1089.68 27.085 1089.94 27.035 1090.2 27.035C1090.4 27.035 1090.53 27.04 1090.6 27.05C1090.68 27.06 1090.76 27.07 1090.84 27.08V28.73C1090.72 28.71 1090.6 28.695 1090.47 28.685C1090.35 28.665 1090.23 28.655 1090.11 28.655C1089.82 28.655 1089.54 28.715 1089.28 28.835C1089.03 28.945 1088.81 29.115 1088.62 29.345C1088.43 29.565 1088.28 29.84 1088.17 30.17C1088.06 30.5 1088.01 30.88 1088.01 31.31V35H1086.3V27.245ZM1096.54 29.84C1096.47 29.36 1096.28 29 1095.96 28.76C1095.65 28.51 1095.25 28.385 1094.77 28.385C1094.55 28.385 1094.32 28.425 1094.07 28.505C1093.82 28.575 1093.59 28.715 1093.38 28.925C1093.17 29.125 1092.99 29.41 1092.85 29.78C1092.71 30.14 1092.64 30.615 1092.64 31.205C1092.64 31.525 1092.68 31.845 1092.75 32.165C1092.83 32.485 1092.95 32.77 1093.11 33.02C1093.28 33.27 1093.49 33.475 1093.75 33.635C1094.01 33.785 1094.33 33.86 1094.7 33.86C1095.2 33.86 1095.61 33.705 1095.93 33.395C1096.26 33.085 1096.46 32.65 1096.54 32.09H1098.25C1098.09 33.1 1097.71 33.875 1097.1 34.415C1096.5 34.945 1095.7 35.21 1094.7 35.21C1094.09 35.21 1093.55 35.11 1093.08 34.91C1092.62 34.7 1092.23 34.42 1091.91 34.07C1091.59 33.71 1091.34 33.285 1091.17 32.795C1091.01 32.305 1090.93 31.775 1090.93 31.205C1090.93 30.625 1091.01 30.08 1091.17 29.57C1091.33 29.06 1091.57 28.62 1091.89 28.25C1092.21 27.87 1092.61 27.575 1093.08 27.365C1093.56 27.145 1094.12 27.035 1094.76 27.035C1095.21 27.035 1095.63 27.095 1096.03 27.215C1096.44 27.325 1096.8 27.495 1097.11 27.725C1097.43 27.955 1097.69 28.245 1097.89 28.595C1098.09 28.945 1098.21 29.36 1098.25 29.84H1096.54ZM1099.64 24.29H1101.35V28.265H1101.38C1101.59 27.915 1101.9 27.625 1102.31 27.395C1102.73 27.155 1103.2 27.035 1103.71 27.035C1104.56 27.035 1105.23 27.255 1105.72 27.695C1106.21 28.135 1106.45 28.795 1106.45 29.675V35H1104.74V30.125C1104.72 29.515 1104.59 29.075 1104.35 28.805C1104.11 28.525 1103.74 28.385 1103.23 28.385C1102.94 28.385 1102.68 28.44 1102.45 28.55C1102.22 28.65 1102.02 28.795 1101.86 28.985C1101.7 29.165 1101.58 29.38 1101.49 29.63C1101.4 29.88 1101.35 30.145 1101.35 30.425V35H1099.64V24.29Z" fill="#CCCCCC"/>
<g clip-path="url(#clip0_1_14)">
<path d="M1034.96 34.296C1033.92 34.9224 1032.72 35.2521 1031.5 35.25C1030.61 35.2512 1029.74 35.0772 1028.92 34.7379C1028.1 34.3986 1027.35 33.9008 1026.73 33.273C1026.1 32.6469 1025.6 31.9029 1025.26 31.0838C1024.92 30.2647 1024.75 29.3866 1024.75 28.5C1024.75 26.636 1025.51 24.949 1026.73 23.727C1027.35 23.0992 1028.1 22.6014 1028.92 22.2621C1029.74 21.9228 1030.61 21.7488 1031.5 21.75C1033.36 21.75 1035.05 22.505 1036.27 23.727C1036.9 24.3531 1037.4 25.0971 1037.74 25.9162C1038.08 26.7353 1038.25 27.6134 1038.25 28.5C1038.25 29.6974 1037.93 30.8736 1037.33 31.907C1036.81 32.789 1036.9 33.895 1037.62 34.618L1041.47 38.471" stroke="#111111" stroke-width="1.5"/>
</g>
<defs>
<clipPath id="clip0_1_14">
<rect width="24" height="24" fill="white" transform="translate(1021 18)"/>
</clipPath>
</defs>
</svg>
